# MagicaVoxel @ Ephtracy

# group
o 

# material
mtllib s.mtl
usemtl palette

# normals
vn -1 0 0
vn 1 0 0
vn 0 0 1
vn 0 0 -1
vn 0 -1 0
vn 0 1 0

# texcoords
vt 0.220703 0.5
vt 0.224609 0.5
vt 0.283203 0.5
vt 0.947266 0.5
vt 0.955078 0.5

# verts
v -2 3.7 2
v -2 3.7 -2
v -2 4 2
v -2 4 -2
v -1.3 3.8 1.3
v -1.3 3.8 1.2
v -1.3 3.8 -1.3
v -1.3 3.9 1.3
v -1.3 3.9 1.2
v -1.3 3.9 -1.3
v -1 3.9 0.4
v -1 3.9 -0.6
v -1 4 0.4
v -1 4 -0.6
v -0.9 3.9 0.6
v -0.9 3.9 0.4
v -0.9 3.9 -0.6
v -0.9 3.9 -0.8
v -0.9 4 0.6
v -0.9 4 0.4
v -0.9 4 -0.6
v -0.9 4 -0.8
v -0.8 3.9 0.8
v -0.8 3.9 0.6
v -0.8 4 0.8
v -0.8 4 0.6
v -0.7 3.9 -0.8
v -0.7 3.9 -0.9
v -0.7 4 -0.8
v -0.7 4 -0.9
v -0.6 3.9 1
v -0.6 3.9 0.8
v -0.6 4 1
v -0.6 4 0.8
v -0.2 3.9 0.8
v -0.2 3.9 0.4
v -0.2 4 0.8
v -0.2 4 0.4
v -0.0999999 3.9 0.4
v -0.0999999 3.9 -0.3
v -0.0999999 4 0.4
v -0.0999999 4 -0.3
v 2.38419e-07 3.9 -0.3
v 2.38419e-07 3.9 -0.5
v 2.38419e-07 4 -0.3
v 2.38419e-07 4 -0.5
v 0.1 3.9 -0.5
v 0.1 3.9 -0.7
v 0.1 4 -0.5
v 0.1 4 -0.7
v 0.3 3.9 -0.7
v 0.3 3.9 -1
v 0.3 4 -0.7
v 0.3 4 -1
v 0.6 3.9 0.9
v 0.6 3.9 0.6
v 0.6 4 0.9
v 0.6 4 0.6
v 0.7 3.9 0.6
v 0.7 3.9 0.4
v 0.7 3.9 -0.6
v 0.7 3.9 -0.8
v 0.7 4 0.6
v 0.7 4 0.4
v 0.7 4 -0.6
v 0.7 4 -0.8
v 0.8 3.9 0.4
v 0.8 3.9 -0.6
v 0.8 4 0.4
v 0.8 4 -0.6
v 1.6 3.8 1.6
v 1.6 3.8 -1.6
v 1.6 3.9 1.6
v 1.6 3.9 -1.6
v 1.8 3.9 1.8
v 1.8 3.9 -1.8
v 1.8 4 1.8
v 1.8 4 -1.8
v -1.8 3.9 1.8
v -1.8 3.9 -1.8
v -1.8 4 1.8
v -1.8 4 -1.8
v -1.6 3.8 1.6
v -1.6 3.8 -1.6
v -1.6 3.9 1.6
v -1.6 3.9 -1.6
v -0.8 3.9 0.4
v -0.8 3.9 -0.4
v -0.8 4 0.4
v -0.8 4 -0.4
v -0.7 3.9 -0.4
v -0.7 3.9 -0.6
v -0.7 4 -0.4
v -0.7 4 -0.6
v -0.6 3.9 0.6
v -0.6 3.9 0.4
v -0.6 4 0.6
v -0.6 4 0.4
v -0.5 3.9 -0.6
v -0.5 3.9 -0.9
v -0.5 4 -0.6
v -0.5 4 -0.9
v -0.4 3.9 0.8
v -0.4 3.9 0.6
v -0.4 4 0.8
v -0.4 4 0.6
v -0.0999999 3.9 1
v -0.0999999 3.9 0.8
v -0.0999999 4 1
v -0.0999999 4 0.8
v 2.38419e-07 3.9 0.8
v 2.38419e-07 3.9 0.6
v 2.38419e-07 4 0.8
v 2.38419e-07 4 0.6
v 0.1 3.9 0.6
v 0.1 3.9 -0.3
v 0.1 4 0.6
v 0.1 4 -0.3
v 0.3 3.9 -0.3
v 0.3 3.9 -0.6
v 0.3 4 -0.3
v 0.3 4 -0.6
v 0.5 3.9 -0.6
v 0.5 3.9 -0.8
v 0.5 4 -0.6
v 0.5 4 -0.8
v 0.7 3.9 0.9
v 0.7 3.9 0.8
v 0.7 3.9 -0.9
v 0.7 3.9 -1
v 0.7 4 0.9
v 0.7 4 0.8
v 0.7 4 -0.9
v 0.7 4 -1
v 0.8 3.9 0.8
v 0.8 3.9 0.6
v 0.8 4 0.8
v 0.8 4 0.6
v 0.9 3.9 0.6
v 0.9 3.9 0.4
v 0.9 3.9 -0.6
v 0.9 3.9 -0.9
v 0.9 4 0.6
v 0.9 4 0.4
v 0.9 4 -0.6
v 0.9 4 -0.9
v 1 3.9 0.4
v 1 3.9 -0.6
v 1 4 0.4
v 1 4 -0.6
v 1.3 3.8 1.3
v 1.3 3.8 -1.3
v 1.3 3.9 1.3
v 1.3 3.9 -1.3
v 2 3.7 2
v 2 3.7 -2
v 2 4 2
v 2 4 -2
v -2 3.7 2
v -2 4 2
v 2 3.7 2
v 2 4 2
v -1.3 3.8 1.3
v -1.3 3.9 1.3
v 1.3 3.8 1.3
v 1.3 3.9 1.3
v -0.6 3.9 1
v -0.6 4 1
v -0.0999999 3.9 1
v -0.0999999 4 1
v 0.6 3.9 0.9
v 0.6 4 0.9
v 0.7 3.9 0.9
v 0.7 4 0.9
v -0.8 3.9 0.8
v -0.8 4 0.8
v -0.6 3.9 0.8
v -0.6 4 0.8
v -0.0999999 3.9 0.8
v -0.0999999 4 0.8
v 2.38419e-07 3.9 0.8
v 2.38419e-07 4 0.8
v 0.7 3.9 0.8
v 0.7 4 0.8
v 0.8 3.9 0.8
v 0.8 4 0.8
v -0.9 3.9 0.6
v -0.9 4 0.6
v -0.8 3.9 0.6
v -0.8 4 0.6
v 2.38419e-07 3.9 0.6
v 2.38419e-07 4 0.6
v 0.1 3.9 0.6
v 0.1 4 0.6
v 0.8 3.9 0.6
v 0.8 4 0.6
v 0.9 3.9 0.6
v 0.9 4 0.6
v -1 3.9 0.4
v -1 4 0.4
v -0.9 3.9 0.4
v -0.9 4 0.4
v 0.9 3.9 0.4
v 0.9 4 0.4
v 1 3.9 0.4
v 1 4 0.4
v 0.1 3.9 -0.3
v 0.1 4 -0.3
v 0.3 3.9 -0.3
v 0.3 4 -0.3
v -0.8 3.9 -0.4
v -0.8 4 -0.4
v -0.7 3.9 -0.4
v -0.7 4 -0.4
v -0.7 3.9 -0.6
v -0.7 4 -0.6
v -0.5 3.9 -0.6
v -0.5 4 -0.6
v 0.3 3.9 -0.6
v 0.3 4 -0.6
v 0.5 3.9 -0.6
v 0.5 4 -0.6
v 0.7 3.9 -0.6
v 0.7 4 -0.6
v 0.8 3.9 -0.6
v 0.8 4 -0.6
v 0.5 3.9 -0.8
v 0.5 4 -0.8
v 0.7 3.9 -0.8
v 0.7 4 -0.8
v -1.6 3.8 -1.6
v -1.6 3.9 -1.6
v 1.6 3.8 -1.6
v 1.6 3.9 -1.6
v -1.8 3.9 -1.8
v -1.8 4 -1.8
v 1.8 3.9 -1.8
v 1.8 4 -1.8
v -1.8 3.9 1.8
v -1.8 4 1.8
v 1.8 3.9 1.8
v 1.8 4 1.8
v -1.6 3.8 1.6
v -1.6 3.9 1.6
v 1.6 3.8 1.6
v 1.6 3.9 1.6
v -0.4 3.9 0.8
v -0.4 4 0.8
v -0.2 3.9 0.8
v -0.2 4 0.8
v -0.6 3.9 0.6
v -0.6 4 0.6
v -0.4 3.9 0.6
v -0.4 4 0.6
v 0.6 3.9 0.6
v 0.6 4 0.6
v 0.7 3.9 0.6
v 0.7 4 0.6
v -0.8 3.9 0.4
v -0.8 4 0.4
v -0.6 3.9 0.4
v -0.6 4 0.4
v -0.2 3.9 0.4
v -0.2 4 0.4
v -0.0999999 3.9 0.4
v -0.0999999 4 0.4
v 0.7 3.9 0.4
v 0.7 4 0.4
v 0.8 3.9 0.4
v 0.8 4 0.4
v -0.0999999 3.9 -0.3
v -0.0999999 4 -0.3
v 2.38419e-07 3.9 -0.3
v 2.38419e-07 4 -0.3
v 2.38419e-07 3.9 -0.5
v 2.38419e-07 4 -0.5
v 0.1 3.9 -0.5
v 0.1 4 -0.5
v -1 3.9 -0.6
v -1 4 -0.6
v -0.9 3.9 -0.6
v -0.9 4 -0.6
v 0.9 3.9 -0.6
v 0.9 4 -0.6
v 1 3.9 -0.6
v 1 4 -0.6
v 0.1 3.9 -0.7
v 0.1 4 -0.7
v 0.3 3.9 -0.7
v 0.3 4 -0.7
v -0.9 3.9 -0.8
v -0.9 4 -0.8
v -0.7 3.9 -0.8
v -0.7 4 -0.8
v -0.7 3.9 -0.9
v -0.7 4 -0.9
v -0.5 3.9 -0.9
v -0.5 4 -0.9
v 0.7 3.9 -0.9
v 0.7 4 -0.9
v 0.9 3.9 -0.9
v 0.9 4 -0.9
v 0.3 3.9 -1
v 0.3 4 -1
v 0.7 3.9 -1
v 0.7 4 -1
v -1.3 3.8 -1.3
v -1.3 3.9 -1.3
v 1.2 3.8 -1.3
v 1.2 3.9 -1.3
v 1.3 3.8 -1.3
v 1.3 3.9 -1.3
v -2 3.7 -2
v -2 4 -2
v 2 3.7 -2
v 2 4 -2
v -2 3.7 2
v 2 3.7 2
v -2 3.7 -2
v 2 3.7 -2
v -1.6 3.8 1.6
v 1.6 3.8 1.6
v -1.3 3.8 1.3
v 1.3 3.8 1.3
v -1.3 3.8 1.2
v -1.3 3.8 -1.3
v 1.2 3.8 -1.3
v 1.3 3.8 -1.3
v -1.6 3.8 -1.6
v 1.6 3.8 -1.6
v -1.8 3.9 1.8
v 1.8 3.9 1.8
v -1.6 3.9 1.6
v 1.6 3.9 1.6
v -1.3 3.9 1.3
v 1.3 3.9 1.3
v -1.3 3.9 1.2
v -1.2 3.9 1.2
v 1.2 3.9 1.2
v -0.6 3.9 1
v -0.0999999 3.9 1
v 0.6 3.9 0.9
v 0.7 3.9 0.9
v -0.8 3.9 0.8
v -0.6 3.9 0.8
v -0.4 3.9 0.8
v -0.2 3.9 0.8
v -0.0999999 3.9 0.8
v 2.38419e-07 3.9 0.8
v 0.7 3.9 0.8
v 0.8 3.9 0.8
v -0.9 3.9 0.6
v -0.8 3.9 0.6
v -0.6 3.9 0.6
v -0.4 3.9 0.6
v 2.38419e-07 3.9 0.6
v 0.1 3.9 0.6
v 0.6 3.9 0.6
v 0.7 3.9 0.6
v 0.8 3.9 0.6
v 0.9 3.9 0.6
v -1 3.9 0.4
v -0.9 3.9 0.4
v -0.8 3.9 0.4
v -0.6 3.9 0.4
v -0.2 3.9 0.4
v -0.0999999 3.9 0.4
v 0.7 3.9 0.4
v 0.8 3.9 0.4
v 0.9 3.9 0.4
v 1 3.9 0.4
v -0.0999999 3.9 -0.3
v 2.38419e-07 3.9 -0.3
v 0.1 3.9 -0.3
v 0.3 3.9 -0.3
v -0.8 3.9 -0.4
v -0.7 3.9 -0.4
v 2.38419e-07 3.9 -0.5
v 0.1 3.9 -0.5
v -1 3.9 -0.6
v -0.9 3.9 -0.6
v -0.7 3.9 -0.6
v -0.5 3.9 -0.6
v 0.3 3.9 -0.6
v 0.5 3.9 -0.6
v 0.7 3.9 -0.6
v 0.8 3.9 -0.6
v 0.9 3.9 -0.6
v 1 3.9 -0.6
v 0.1 3.9 -0.7
v 0.3 3.9 -0.7
v -0.9 3.9 -0.8
v -0.7 3.9 -0.8
v 0.5 3.9 -0.8
v 0.7 3.9 -0.8
v -0.7 3.9 -0.9
v -0.5 3.9 -0.9
v 0.7 3.9 -0.9
v 0.9 3.9 -0.9
v 0.3 3.9 -1
v 0.7 3.9 -1
v -1.2 3.9 -1.2
v 1.2 3.9 -1.2
v -1.3 3.9 -1.3
v 1.2 3.9 -1.3
v 1.3 3.9 -1.3
v -1.6 3.9 -1.6
v 1.6 3.9 -1.6
v -1.8 3.9 -1.8
v 1.8 3.9 -1.8
v -2 4 2
v 2 4 2
v -1.8 4 1.8
v 1.8 4 1.8
v -0.6 4 1
v -0.0999999 4 1
v 0.6 4 0.9
v 0.7 4 0.9
v -0.8 4 0.8
v -0.6 4 0.8
v -0.4 4 0.8
v -0.2 4 0.8
v -0.0999999 4 0.8
v 2.38419e-07 4 0.8
v 0.7 4 0.8
v 0.8 4 0.8
v -0.9 4 0.6
v -0.8 4 0.6
v -0.6 4 0.6
v -0.4 4 0.6
v 2.38419e-07 4 0.6
v 0.1 4 0.6
v 0.6 4 0.6
v 0.7 4 0.6
v 0.8 4 0.6
v 0.9 4 0.6
v -1 4 0.4
v -0.9 4 0.4
v -0.8 4 0.4
v -0.6 4 0.4
v -0.2 4 0.4
v -0.0999999 4 0.4
v 0.7 4 0.4
v 0.8 4 0.4
v 0.9 4 0.4
v 1 4 0.4
v -0.0999999 4 -0.3
v 2.38419e-07 4 -0.3
v 0.1 4 -0.3
v 0.3 4 -0.3
v -0.8 4 -0.4
v -0.7 4 -0.4
v 2.38419e-07 4 -0.5
v 0.1 4 -0.5
v -1 4 -0.6
v -0.9 4 -0.6
v -0.7 4 -0.6
v -0.5 4 -0.6
v 0.3 4 -0.6
v 0.5 4 -0.6
v 0.7 4 -0.6
v 0.8 4 -0.6
v 0.9 4 -0.6
v 1 4 -0.6
v 0.1 4 -0.7
v 0.3 4 -0.7
v -0.9 4 -0.8
v -0.7 4 -0.8
v 0.5 4 -0.8
v 0.7 4 -0.8
v -0.7 4 -0.9
v -0.5 4 -0.9
v 0.7 4 -0.9
v 0.9 4 -0.9
v 0.3 4 -1
v 0.7 4 -1
v -1.8 4 -1.8
v 1.8 4 -1.8
v -2 4 -2
v 2 4 -2

# faces
f 3/2/1 2/2/1 1/2/1
f 4/2/1 2/2/1 3/2/1
f 8/5/1 6/5/1 5/5/1
f 9/1/1 7/1/1 6/1/1
f 9/5/1 6/5/1 8/5/1
f 10/1/1 7/1/1 9/1/1
f 13/3/1 12/3/1 11/3/1
f 14/3/1 12/3/1 13/3/1
f 19/3/1 16/3/1 15/3/1
f 20/3/1 16/3/1 19/3/1
f 21/3/1 18/3/1 17/3/1
f 22/3/1 18/3/1 21/3/1
f 25/3/1 24/3/1 23/3/1
f 26/3/1 24/3/1 25/3/1
f 29/3/1 28/3/1 27/3/1
f 30/3/1 28/3/1 29/3/1
f 33/3/1 32/3/1 31/3/1
f 34/3/1 32/3/1 33/3/1
f 37/3/1 36/3/1 35/3/1
f 38/3/1 36/3/1 37/3/1
f 41/3/1 40/3/1 39/3/1
f 42/3/1 40/3/1 41/3/1
f 45/3/1 44/3/1 43/3/1
f 46/3/1 44/3/1 45/3/1
f 49/3/1 48/3/1 47/3/1
f 50/3/1 48/3/1 49/3/1
f 53/3/1 52/3/1 51/3/1
f 54/3/1 52/3/1 53/3/1
f 57/3/1 56/3/1 55/3/1
f 58/3/1 56/3/1 57/3/1
f 63/3/1 60/3/1 59/3/1
f 64/3/1 60/3/1 63/3/1
f 65/3/1 62/3/1 61/3/1
f 66/3/1 62/3/1 65/3/1
f 69/3/1 68/3/1 67/3/1
f 70/3/1 68/3/1 69/3/1
f 73/2/1 72/2/1 71/2/1
f 74/2/1 72/2/1 73/2/1
f 77/2/1 76/2/1 75/2/1
f 78/2/1 76/2/1 77/2/1
f 79/2/2 80/2/2 81/2/2
f 81/2/2 80/2/2 82/2/2
f 83/2/2 84/2/2 85/2/2
f 85/2/2 84/2/2 86/2/2
f 87/3/2 88/3/2 89/3/2
f 89/3/2 88/3/2 90/3/2
f 91/3/2 92/3/2 93/3/2
f 93/3/2 92/3/2 94/3/2
f 95/3/2 96/3/2 97/3/2
f 97/3/2 96/3/2 98/3/2
f 99/3/2 100/3/2 101/3/2
f 101/3/2 100/3/2 102/3/2
f 103/3/2 104/3/2 105/3/2
f 105/3/2 104/3/2 106/3/2
f 107/3/2 108/3/2 109/3/2
f 109/3/2 108/3/2 110/3/2
f 111/3/2 112/3/2 113/3/2
f 113/3/2 112/3/2 114/3/2
f 115/3/2 116/3/2 117/3/2
f 117/3/2 116/3/2 118/3/2
f 119/3/2 120/3/2 121/3/2
f 121/3/2 120/3/2 122/3/2
f 123/3/2 124/3/2 125/3/2
f 125/3/2 124/3/2 126/3/2
f 127/3/2 128/3/2 131/3/2
f 131/3/2 128/3/2 132/3/2
f 129/3/2 130/3/2 133/3/2
f 133/3/2 130/3/2 134/3/2
f 135/3/2 136/3/2 137/3/2
f 137/3/2 136/3/2 138/3/2
f 139/3/2 140/3/2 143/3/2
f 143/3/2 140/3/2 144/3/2
f 141/3/2 142/3/2 145/3/2
f 145/3/2 142/3/2 146/3/2
f 147/3/2 148/3/2 149/3/2
f 149/3/2 148/3/2 150/3/2
f 151/5/2 152/5/2 153/5/2
f 153/5/2 152/5/2 154/5/2
f 155/2/2 156/2/2 157/2/2
f 157/2/2 156/2/2 158/2/2
f 161/2/3 160/2/3 159/2/3
f 162/2/3 160/2/3 161/2/3
f 165/5/3 164/5/3 163/5/3
f 166/5/3 164/5/3 165/5/3
f 169/3/3 168/3/3 167/3/3
f 170/3/3 168/3/3 169/3/3
f 173/3/3 172/3/3 171/3/3
f 174/3/3 172/3/3 173/3/3
f 177/3/3 176/3/3 175/3/3
f 178/3/3 176/3/3 177/3/3
f 181/3/3 180/3/3 179/3/3
f 182/3/3 180/3/3 181/3/3
f 185/3/3 184/3/3 183/3/3
f 186/3/3 184/3/3 185/3/3
f 189/3/3 188/3/3 187/3/3
f 190/3/3 188/3/3 189/3/3
f 193/3/3 192/3/3 191/3/3
f 194/3/3 192/3/3 193/3/3
f 197/3/3 196/3/3 195/3/3
f 198/3/3 196/3/3 197/3/3
f 201/3/3 200/3/3 199/3/3
f 202/3/3 200/3/3 201/3/3
f 205/3/3 204/3/3 203/3/3
f 206/3/3 204/3/3 205/3/3
f 209/3/3 208/3/3 207/3/3
f 210/3/3 208/3/3 209/3/3
f 213/3/3 212/3/3 211/3/3
f 214/3/3 212/3/3 213/3/3
f 217/3/3 216/3/3 215/3/3
f 218/3/3 216/3/3 217/3/3
f 221/3/3 220/3/3 219/3/3
f 222/3/3 220/3/3 221/3/3
f 225/3/3 224/3/3 223/3/3
f 226/3/3 224/3/3 225/3/3
f 229/3/3 228/3/3 227/3/3
f 230/3/3 228/3/3 229/3/3
f 233/2/3 232/2/3 231/2/3
f 234/2/3 232/2/3 233/2/3
f 237/2/3 236/2/3 235/2/3
f 238/2/3 236/2/3 237/2/3
f 239/2/4 240/2/4 241/2/4
f 241/2/4 240/2/4 242/2/4
f 243/2/4 244/2/4 245/2/4
f 245/2/4 244/2/4 246/2/4
f 247/3/4 248/3/4 249/3/4
f 249/3/4 248/3/4 250/3/4
f 251/3/4 252/3/4 253/3/4
f 253/3/4 252/3/4 254/3/4
f 255/3/4 256/3/4 257/3/4
f 257/3/4 256/3/4 258/3/4
f 259/3/4 260/3/4 261/3/4
f 261/3/4 260/3/4 262/3/4
f 263/3/4 264/3/4 265/3/4
f 265/3/4 264/3/4 266/3/4
f 267/3/4 268/3/4 269/3/4
f 269/3/4 268/3/4 270/3/4
f 271/3/4 272/3/4 273/3/4
f 273/3/4 272/3/4 274/3/4
f 275/3/4 276/3/4 277/3/4
f 277/3/4 276/3/4 278/3/4
f 279/3/4 280/3/4 281/3/4
f 281/3/4 280/3/4 282/3/4
f 283/3/4 284/3/4 285/3/4
f 285/3/4 284/3/4 286/3/4
f 287/3/4 288/3/4 289/3/4
f 289/3/4 288/3/4 290/3/4
f 291/3/4 292/3/4 293/3/4
f 293/3/4 292/3/4 294/3/4
f 295/3/4 296/3/4 297/3/4
f 297/3/4 296/3/4 298/3/4
f 299/3/4 300/3/4 301/3/4
f 301/3/4 300/3/4 302/3/4
f 303/3/4 304/3/4 305/3/4
f 305/3/4 304/3/4 306/3/4
f 307/1/4 308/1/4 309/1/4
f 309/1/4 308/1/4 310/1/4
f 309/5/4 310/5/4 311/5/4
f 311/5/4 310/5/4 312/5/4
f 313/2/4 314/2/4 315/2/4
f 315/2/4 314/2/4 316/2/4
f 319/2/5 318/2/5 317/2/5
f 320/2/5 318/2/5 319/2/5
f 321/2/6 322/2/6 323/2/6
f 323/2/6 322/2/6 324/2/6
f 321/2/6 323/2/6 325/2/6
f 321/2/6 325/2/6 326/2/6
f 324/2/6 322/2/6 328/2/6
f 326/2/6 327/2/6 329/2/6
f 327/2/6 328/2/6 329/2/6
f 321/2/6 326/2/6 329/2/6
f 328/2/6 322/2/6 330/2/6
f 329/2/6 328/2/6 330/2/6
f 331/2/6 332/2/6 333/2/6
f 333/2/6 332/2/6 334/2/6
f 335/5/6 336/5/6 337/5/6
f 337/5/6 336/5/6 338/5/6
f 338/5/6 336/5/6 339/5/6
f 338/4/6 339/4/6 340/4/6
f 340/4/6 339/4/6 341/4/6
f 341/4/6 339/4/6 342/4/6
f 342/4/6 339/4/6 343/4/6
f 338/4/6 340/4/6 344/4/6
f 344/4/6 340/4/6 345/4/6
f 341/4/6 342/4/6 348/4/6
f 348/4/6 342/4/6 349/4/6
f 343/4/6 339/4/6 350/4/6
f 350/4/6 339/4/6 351/4/6
f 338/4/6 344/4/6 352/4/6
f 352/4/6 344/4/6 353/4/6
f 346/4/6 347/4/6 355/4/6
f 349/4/6 342/4/6 356/4/6
f 356/4/6 342/4/6 357/4/6
f 357/4/6 342/4/6 358/4/6
f 351/4/6 339/4/6 360/4/6
f 360/4/6 339/4/6 361/4/6
f 338/4/6 352/4/6 362/4/6
f 362/4/6 352/4/6 363/4/6
f 354/4/6 355/4/6 365/4/6
f 355/4/6 347/4/6 366/4/6
f 365/4/6 355/4/6 366/4/6
f 358/4/6 359/4/6 368/4/6
f 357/4/6 358/4/6 368/4/6
f 361/4/6 339/4/6 370/4/6
f 370/4/6 339/4/6 371/4/6
f 366/4/6 367/4/6 372/4/6
f 364/4/6 365/4/6 372/4/6
f 365/4/6 366/4/6 372/4/6
f 368/4/6 369/4/6 374/4/6
f 357/4/6 368/4/6 374/4/6
f 374/4/6 369/4/6 375/4/6
f 372/4/6 373/4/6 376/4/6
f 364/4/6 372/4/6 376/4/6
f 376/4/6 373/4/6 377/4/6
f 377/4/6 373/4/6 378/4/6
f 338/4/6 362/4/6 380/4/6
f 378/4/6 379/4/6 382/4/6
f 377/4/6 378/4/6 382/4/6
f 382/4/6 379/4/6 383/4/6
f 375/4/6 369/4/6 384/4/6
f 384/4/6 369/4/6 385/4/6
f 385/4/6 369/4/6 386/4/6
f 386/4/6 369/4/6 387/4/6
f 371/4/6 339/4/6 389/4/6
f 383/4/6 379/4/6 390/4/6
f 380/4/6 381/4/6 392/4/6
f 385/4/6 386/4/6 394/4/6
f 394/4/6 386/4/6 395/4/6
f 392/4/6 393/4/6 396/4/6
f 390/4/6 391/4/6 397/4/6
f 383/4/6 390/4/6 397/4/6
f 388/4/6 389/4/6 399/4/6
f 396/4/6 397/4/6 400/4/6
f 397/4/6 391/4/6 400/4/6
f 398/4/6 399/4/6 401/4/6
f 337/1/6 338/1/6 402/1/6
f 400/4/6 401/4/6 402/4/6
f 396/4/6 400/4/6 402/4/6
f 392/4/6 396/4/6 402/4/6
f 338/4/6 380/4/6 402/4/6
f 380/4/6 392/4/6 402/4/6
f 401/4/6 399/4/6 403/4/6
f 402/4/6 401/4/6 403/4/6
f 339/5/6 336/5/6 403/5/6
f 389/4/6 339/4/6 403/4/6
f 399/4/6 389/4/6 403/4/6
f 337/1/6 402/1/6 404/1/6
f 402/1/6 403/1/6 404/1/6
f 403/5/6 336/5/6 405/5/6
f 404/1/6 403/1/6 405/1/6
f 405/5/6 336/5/6 406/5/6
f 331/2/6 333/2/6 407/2/6
f 334/2/6 332/2/6 408/2/6
f 331/2/6 407/2/6 409/2/6
f 407/2/6 408/2/6 409/2/6
f 408/2/6 332/2/6 410/2/6
f 409/2/6 408/2/6 410/2/6
f 411/2/6 412/2/6 413/2/6
f 413/2/6 412/2/6 414/2/6
f 415/3/6 416/3/6 420/3/6
f 420/3/6 416/3/6 421/3/6
f 421/3/6 416/3/6 422/3/6
f 422/3/6 416/3/6 423/3/6
f 417/3/6 418/3/6 425/3/6
f 419/3/6 420/3/6 428/3/6
f 420/3/6 421/3/6 428/3/6
f 428/3/6 421/3/6 429/3/6
f 429/3/6 421/3/6 430/3/6
f 423/3/6 424/3/6 431/3/6
f 422/3/6 423/3/6 431/3/6
f 417/3/6 425/3/6 433/3/6
f 425/3/6 426/3/6 433/3/6
f 433/3/6 426/3/6 434/3/6
f 434/3/6 426/3/6 435/3/6
f 428/3/6 429/3/6 438/3/6
f 427/3/6 428/3/6 438/3/6
f 438/3/6 429/3/6 439/3/6
f 439/3/6 429/3/6 440/3/6
f 431/3/6 432/3/6 441/3/6
f 422/3/6 431/3/6 441/3/6
f 441/3/6 432/3/6 442/3/6
f 435/3/6 436/3/6 443/3/6
f 434/3/6 435/3/6 443/3/6
f 443/3/6 436/3/6 444/3/6
f 444/3/6 436/3/6 445/3/6
f 442/3/6 432/3/6 447/3/6
f 447/3/6 432/3/6 448/3/6
f 448/3/6 432/3/6 449/3/6
f 438/3/6 439/3/6 451/3/6
f 437/3/6 438/3/6 451/3/6
f 449/3/6 450/3/6 453/3/6
f 448/3/6 449/3/6 453/3/6
f 453/3/6 450/3/6 454/3/6
f 451/3/6 452/3/6 455/3/6
f 437/3/6 451/3/6 455/3/6
f 455/3/6 452/3/6 456/3/6
f 456/3/6 452/3/6 457/3/6
f 454/3/6 450/3/6 459/3/6
f 445/3/6 446/3/6 462/3/6
f 444/3/6 445/3/6 462/3/6
f 462/3/6 446/3/6 463/3/6
f 463/3/6 446/3/6 464/3/6
f 459/3/6 460/3/6 465/3/6
f 454/3/6 459/3/6 465/3/6
f 465/3/6 460/3/6 466/3/6
f 457/3/6 458/3/6 467/3/6
f 456/3/6 457/3/6 467/3/6
f 467/3/6 458/3/6 468/3/6
f 466/3/6 460/3/6 469/3/6
f 462/3/6 463/3/6 470/3/6
f 461/3/6 462/3/6 470/3/6
f 468/3/6 458/3/6 471/3/6
f 471/3/6 458/3/6 472/3/6
f 469/3/6 470/3/6 473/3/6
f 470/3/6 463/3/6 473/3/6
f 473/3/6 463/3/6 474/3/6
f 466/3/6 469/3/6 475/3/6
f 469/3/6 473/3/6 475/3/6
f 475/3/6 473/3/6 476/3/6
f 411/2/6 413/2/6 477/2/6
f 414/2/6 412/2/6 478/2/6
f 411/2/6 477/2/6 479/2/6
f 477/2/6 478/2/6 479/2/6
f 478/2/6 412/2/6 480/2/6
f 479/2/6 478/2/6 480/2/6
