# MagicaVoxel @ Ephtracy

# group
o 

# material
mtllib d.mtl
usemtl palette

# normals
vn -1 0 0
vn 1 0 0
vn 0 0 1
vn 0 0 -1
vn 0 -1 0
vn 0 1 0

# texcoords
vt 0.220703 0.5
vt 0.224609 0.5
vt 0.283203 0.5
vt 0.947266 0.5
vt 0.955078 0.5

# verts
v -2 3.7 2
v -2 3.7 -2
v -2 4 2
v -2 4 -2
v -1.3 3.8 1.3
v -1.3 3.8 1.2
v -1.3 3.8 -1.3
v -1.3 3.9 1.3
v -1.3 3.9 1.2
v -1.3 3.9 -1.3
v -1 3.9 0.8
v -1 3.9 -2.38419e-07
v -1 4 0.8
v -1 4 -2.38419e-07
v -0.9 3.9 -2.38419e-07
v -0.9 3.9 -0.4
v -0.9 4 -2.38419e-07
v -0.9 4 -0.4
v -0.7 3.9 -0.4
v -0.7 3.9 -0.6
v -0.7 4 -0.4
v -0.7 4 -0.6
v -0.6 3.9 -0.6
v -0.6 3.9 -0.8
v -0.6 4 -0.6
v -0.6 4 -0.8
v 0.6 3.9 -0.3
v 0.6 3.9 -0.6
v 0.6 4 -0.3
v 0.6 4 -0.6
v 0.7 3.9 -2.38419e-07
v 0.7 3.9 -0.3
v 0.7 4 -2.38419e-07
v 0.7 4 -0.3
v 0.8 3.9 0.5
v 0.8 3.9 -2.38419e-07
v 0.8 4 0.5
v 0.8 4 -2.38419e-07
v 1.6 3.8 1.6
v 1.6 3.8 -1.6
v 1.6 3.9 1.6
v 1.6 3.9 -1.6
v 1.8 3.9 1.8
v 1.8 3.9 -1.8
v 1.8 4 1.8
v 1.8 4 -1.8
v -1.8 3.9 1.8
v -1.8 3.9 -1.8
v -1.8 4 1.8
v -1.8 4 -1.8
v -1.6 3.8 1.6
v -1.6 3.8 -1.6
v -1.6 3.9 1.6
v -1.6 3.9 -1.6
v -0.8 3.9 0.5
v -0.8 3.9 -2.38419e-07
v -0.8 4 0.5
v -0.8 4 -2.38419e-07
v -0.7 3.9 -2.38419e-07
v -0.7 3.9 -0.3
v -0.7 4 -2.38419e-07
v -0.7 4 -0.3
v -0.5 3.9 -0.3
v -0.5 3.9 -0.6
v -0.5 4 -0.3
v -0.5 4 -0.6
v 0.6 3.9 -0.6
v 0.6 3.9 -0.8
v 0.6 4 -0.6
v 0.6 4 -0.8
v 0.8 3.9 -0.3
v 0.8 3.9 -0.6
v 0.8 4 -0.3
v 0.8 4 -0.6
v 0.9 3.9 -2.38419e-07
v 0.9 3.9 -0.3
v 0.9 4 -2.38419e-07
v 0.9 4 -0.3
v 1 3.9 0.8
v 1 3.9 -2.38419e-07
v 1 4 0.8
v 1 4 -2.38419e-07
v 1.3 3.8 1.3
v 1.3 3.8 -1.3
v 1.3 3.9 1.3
v 1.3 3.9 -1.3
v 2 3.7 2
v 2 3.7 -2
v 2 4 2
v 2 4 -2
v -2 3.7 2
v -2 4 2
v 2 3.7 2
v 2 4 2
v -1.3 3.8 1.3
v -1.3 3.9 1.3
v 1.3 3.8 1.3
v 1.3 3.9 1.3
v -1 3.9 0.8
v -1 4 0.8
v 1 3.9 0.8
v 1 4 0.8
v -0.8 3.9 -2.38419e-07
v -0.8 4 -2.38419e-07
v -0.7 3.9 -2.38419e-07
v -0.7 4 -2.38419e-07
v 0.7 3.9 -2.38419e-07
v 0.7 4 -2.38419e-07
v 0.8 3.9 -2.38419e-07
v 0.8 4 -2.38419e-07
v -0.7 3.9 -0.3
v -0.7 4 -0.3
v -0.5 3.9 -0.3
v -0.5 4 -0.3
v 0.6 3.9 -0.3
v 0.6 4 -0.3
v 0.7 3.9 -0.3
v 0.7 4 -0.3
v -0.5 3.9 -0.6
v -0.5 4 -0.6
v 0.6 3.9 -0.6
v 0.6 4 -0.6
v -1.6 3.8 -1.6
v -1.6 3.9 -1.6
v 1.6 3.8 -1.6
v 1.6 3.9 -1.6
v -1.8 3.9 -1.8
v -1.8 4 -1.8
v 1.8 3.9 -1.8
v 1.8 4 -1.8
v -1.8 3.9 1.8
v -1.8 4 1.8
v 1.8 3.9 1.8
v 1.8 4 1.8
v -1.6 3.8 1.6
v -1.6 3.9 1.6
v 1.6 3.8 1.6
v 1.6 3.9 1.6
v -0.8 3.9 0.5
v -0.8 4 0.5
v 0.8 3.9 0.5
v 0.8 4 0.5
v -1 3.9 -2.38419e-07
v -1 4 -2.38419e-07
v -0.9 3.9 -2.38419e-07
v -0.9 4 -2.38419e-07
v 0.9 3.9 -2.38419e-07
v 0.9 4 -2.38419e-07
v 1 3.9 -2.38419e-07
v 1 4 -2.38419e-07
v 0.8 3.9 -0.3
v 0.8 4 -0.3
v 0.9 3.9 -0.3
v 0.9 4 -0.3
v -0.9 3.9 -0.4
v -0.9 4 -0.4
v -0.7 3.9 -0.4
v -0.7 4 -0.4
v -0.7 3.9 -0.6
v -0.7 4 -0.6
v -0.6 3.9 -0.6
v -0.6 4 -0.6
v 0.6 3.9 -0.6
v 0.6 4 -0.6
v 0.8 3.9 -0.6
v 0.8 4 -0.6
v -0.6 3.9 -0.8
v -0.6 4 -0.8
v 0.6 3.9 -0.8
v 0.6 4 -0.8
v -1.3 3.8 -1.3
v -1.3 3.9 -1.3
v 1.2 3.8 -1.3
v 1.2 3.9 -1.3
v 1.3 3.8 -1.3
v 1.3 3.9 -1.3
v -2 3.7 -2
v -2 4 -2
v 2 3.7 -2
v 2 4 -2
v -2 3.7 2
v 2 3.7 2
v -2 3.7 -2
v 2 3.7 -2
v -1.6 3.8 1.6
v 1.6 3.8 1.6
v -1.3 3.8 1.3
v 1.3 3.8 1.3
v -1.3 3.8 1.2
v -1.3 3.8 -1.3
v 1.2 3.8 -1.3
v 1.3 3.8 -1.3
v -1.6 3.8 -1.6
v 1.6 3.8 -1.6
v -1.8 3.9 1.8
v 1.8 3.9 1.8
v -1.6 3.9 1.6
v 1.6 3.9 1.6
v -1.3 3.9 1.3
v 1.3 3.9 1.3
v -1.3 3.9 1.2
v -1.2 3.9 1.2
v 1.2 3.9 1.2
v -1 3.9 0.8
v 1 3.9 0.8
v -0.8 3.9 0.5
v 0.8 3.9 0.5
v -1 3.9 -2.38419e-07
v -0.9 3.9 -2.38419e-07
v -0.8 3.9 -2.38419e-07
v -0.7 3.9 -2.38419e-07
v 0.7 3.9 -2.38419e-07
v 0.8 3.9 -2.38419e-07
v 0.9 3.9 -2.38419e-07
v 1 3.9 -2.38419e-07
v -0.7 3.9 -0.3
v -0.5 3.9 -0.3
v 0.6 3.9 -0.3
v 0.7 3.9 -0.3
v 0.8 3.9 -0.3
v 0.9 3.9 -0.3
v -0.9 3.9 -0.4
v -0.7 3.9 -0.4
v -0.7 3.9 -0.6
v -0.6 3.9 -0.6
v -0.5 3.9 -0.6
v 0.6 3.9 -0.6
v 0.8 3.9 -0.6
v -0.6 3.9 -0.8
v 0.6 3.9 -0.8
v -1.2 3.9 -1.2
v 1.2 3.9 -1.2
v -1.3 3.9 -1.3
v 1.2 3.9 -1.3
v 1.3 3.9 -1.3
v -1.6 3.9 -1.6
v 1.6 3.9 -1.6
v -1.8 3.9 -1.8
v 1.8 3.9 -1.8
v -2 4 2
v 2 4 2
v -1.8 4 1.8
v 1.8 4 1.8
v -1 4 0.8
v 1 4 0.8
v -0.8 4 0.5
v 0.8 4 0.5
v -1 4 -2.38419e-07
v -0.9 4 -2.38419e-07
v -0.8 4 -2.38419e-07
v -0.7 4 -2.38419e-07
v 0.7 4 -2.38419e-07
v 0.8 4 -2.38419e-07
v 0.9 4 -2.38419e-07
v 1 4 -2.38419e-07
v -0.7 4 -0.3
v -0.5 4 -0.3
v 0.6 4 -0.3
v 0.7 4 -0.3
v 0.8 4 -0.3
v 0.9 4 -0.3
v -0.9 4 -0.4
v -0.7 4 -0.4
v -0.7 4 -0.6
v -0.6 4 -0.6
v -0.5 4 -0.6
v 0.6 4 -0.6
v 0.8 4 -0.6
v -0.6 4 -0.8
v 0.6 4 -0.8
v -1.8 4 -1.8
v 1.8 4 -1.8
v -2 4 -2
v 2 4 -2

# faces
f 3/2/1 2/2/1 1/2/1
f 4/2/1 2/2/1 3/2/1
f 8/5/1 6/5/1 5/5/1
f 9/1/1 7/1/1 6/1/1
f 9/5/1 6/5/1 8/5/1
f 10/1/1 7/1/1 9/1/1
f 13/3/1 12/3/1 11/3/1
f 14/3/1 12/3/1 13/3/1
f 17/3/1 16/3/1 15/3/1
f 18/3/1 16/3/1 17/3/1
f 21/3/1 20/3/1 19/3/1
f 22/3/1 20/3/1 21/3/1
f 25/3/1 24/3/1 23/3/1
f 26/3/1 24/3/1 25/3/1
f 29/3/1 28/3/1 27/3/1
f 30/3/1 28/3/1 29/3/1
f 33/3/1 32/3/1 31/3/1
f 34/3/1 32/3/1 33/3/1
f 37/3/1 36/3/1 35/3/1
f 38/3/1 36/3/1 37/3/1
f 41/2/1 40/2/1 39/2/1
f 42/2/1 40/2/1 41/2/1
f 45/2/1 44/2/1 43/2/1
f 46/2/1 44/2/1 45/2/1
f 47/2/2 48/2/2 49/2/2
f 49/2/2 48/2/2 50/2/2
f 51/2/2 52/2/2 53/2/2
f 53/2/2 52/2/2 54/2/2
f 55/3/2 56/3/2 57/3/2
f 57/3/2 56/3/2 58/3/2
f 59/3/2 60/3/2 61/3/2
f 61/3/2 60/3/2 62/3/2
f 63/3/2 64/3/2 65/3/2
f 65/3/2 64/3/2 66/3/2
f 67/3/2 68/3/2 69/3/2
f 69/3/2 68/3/2 70/3/2
f 71/3/2 72/3/2 73/3/2
f 73/3/2 72/3/2 74/3/2
f 75/3/2 76/3/2 77/3/2
f 77/3/2 76/3/2 78/3/2
f 79/3/2 80/3/2 81/3/2
f 81/3/2 80/3/2 82/3/2
f 83/5/2 84/5/2 85/5/2
f 85/5/2 84/5/2 86/5/2
f 87/2/2 88/2/2 89/2/2
f 89/2/2 88/2/2 90/2/2
f 93/2/3 92/2/3 91/2/3
f 94/2/3 92/2/3 93/2/3
f 97/5/3 96/5/3 95/5/3
f 98/5/3 96/5/3 97/5/3
f 101/3/3 100/3/3 99/3/3
f 102/3/3 100/3/3 101/3/3
f 105/3/3 104/3/3 103/3/3
f 106/3/3 104/3/3 105/3/3
f 109/3/3 108/3/3 107/3/3
f 110/3/3 108/3/3 109/3/3
f 113/3/3 112/3/3 111/3/3
f 114/3/3 112/3/3 113/3/3
f 117/3/3 116/3/3 115/3/3
f 118/3/3 116/3/3 117/3/3
f 121/3/3 120/3/3 119/3/3
f 122/3/3 120/3/3 121/3/3
f 125/2/3 124/2/3 123/2/3
f 126/2/3 124/2/3 125/2/3
f 129/2/3 128/2/3 127/2/3
f 130/2/3 128/2/3 129/2/3
f 131/2/4 132/2/4 133/2/4
f 133/2/4 132/2/4 134/2/4
f 135/2/4 136/2/4 137/2/4
f 137/2/4 136/2/4 138/2/4
f 139/3/4 140/3/4 141/3/4
f 141/3/4 140/3/4 142/3/4
f 143/3/4 144/3/4 145/3/4
f 145/3/4 144/3/4 146/3/4
f 147/3/4 148/3/4 149/3/4
f 149/3/4 148/3/4 150/3/4
f 151/3/4 152/3/4 153/3/4
f 153/3/4 152/3/4 154/3/4
f 155/3/4 156/3/4 157/3/4
f 157/3/4 156/3/4 158/3/4
f 159/3/4 160/3/4 161/3/4
f 161/3/4 160/3/4 162/3/4
f 163/3/4 164/3/4 165/3/4
f 165/3/4 164/3/4 166/3/4
f 167/3/4 168/3/4 169/3/4
f 169/3/4 168/3/4 170/3/4
f 171/1/4 172/1/4 173/1/4
f 173/1/4 172/1/4 174/1/4
f 173/5/4 174/5/4 175/5/4
f 175/5/4 174/5/4 176/5/4
f 177/2/4 178/2/4 179/2/4
f 179/2/4 178/2/4 180/2/4
f 183/2/5 182/2/5 181/2/5
f 184/2/5 182/2/5 183/2/5
f 185/2/6 186/2/6 187/2/6
f 187/2/6 186/2/6 188/2/6
f 185/2/6 187/2/6 189/2/6
f 185/2/6 189/2/6 190/2/6
f 188/2/6 186/2/6 192/2/6
f 190/2/6 191/2/6 193/2/6
f 191/2/6 192/2/6 193/2/6
f 185/2/6 190/2/6 193/2/6
f 192/2/6 186/2/6 194/2/6
f 193/2/6 192/2/6 194/2/6
f 195/2/6 196/2/6 197/2/6
f 197/2/6 196/2/6 198/2/6
f 199/5/6 200/5/6 201/5/6
f 201/5/6 200/5/6 202/5/6
f 202/5/6 200/5/6 203/5/6
f 202/4/6 203/4/6 204/4/6
f 204/4/6 203/4/6 205/4/6
f 202/4/6 204/4/6 208/4/6
f 206/4/6 207/4/6 210/4/6
f 210/4/6 207/4/6 211/4/6
f 211/4/6 207/4/6 212/4/6
f 212/4/6 207/4/6 213/4/6
f 205/4/6 203/4/6 215/4/6
f 211/4/6 212/4/6 216/4/6
f 216/4/6 212/4/6 217/4/6
f 217/4/6 212/4/6 218/4/6
f 218/4/6 212/4/6 219/4/6
f 214/4/6 215/4/6 221/4/6
f 208/4/6 209/4/6 222/4/6
f 222/4/6 223/4/6 224/4/6
f 217/4/6 218/4/6 226/4/6
f 226/4/6 218/4/6 227/4/6
f 220/4/6 221/4/6 228/4/6
f 224/4/6 225/4/6 229/4/6
f 227/4/6 228/4/6 230/4/6
f 201/1/6 202/1/6 231/1/6
f 229/4/6 230/4/6 231/4/6
f 224/4/6 229/4/6 231/4/6
f 202/4/6 208/4/6 231/4/6
f 208/4/6 222/4/6 231/4/6
f 222/4/6 224/4/6 231/4/6
f 230/4/6 228/4/6 232/4/6
f 231/4/6 230/4/6 232/4/6
f 203/5/6 200/5/6 232/5/6
f 221/4/6 215/4/6 232/4/6
f 228/4/6 221/4/6 232/4/6
f 215/4/6 203/4/6 232/4/6
f 201/1/6 231/1/6 233/1/6
f 231/1/6 232/1/6 233/1/6
f 232/5/6 200/5/6 234/5/6
f 233/1/6 232/1/6 234/1/6
f 234/5/6 200/5/6 235/5/6
f 195/2/6 197/2/6 236/2/6
f 198/2/6 196/2/6 237/2/6
f 195/2/6 236/2/6 238/2/6
f 236/2/6 237/2/6 238/2/6
f 237/2/6 196/2/6 239/2/6
f 238/2/6 237/2/6 239/2/6
f 240/2/6 241/2/6 242/2/6
f 242/2/6 241/2/6 243/2/6
f 244/3/6 245/3/6 246/3/6
f 246/3/6 245/3/6 247/3/6
f 244/3/6 246/3/6 248/3/6
f 248/3/6 246/3/6 249/3/6
f 249/3/6 246/3/6 250/3/6
f 247/3/6 245/3/6 253/3/6
f 253/3/6 245/3/6 254/3/6
f 254/3/6 245/3/6 255/3/6
f 250/3/6 251/3/6 256/3/6
f 249/3/6 250/3/6 256/3/6
f 253/3/6 254/3/6 259/3/6
f 252/3/6 253/3/6 259/3/6
f 259/3/6 254/3/6 260/3/6
f 260/3/6 254/3/6 261/3/6
f 256/3/6 257/3/6 262/3/6
f 249/3/6 256/3/6 262/3/6
f 262/3/6 257/3/6 263/3/6
f 263/3/6 257/3/6 264/3/6
f 264/3/6 257/3/6 265/3/6
f 265/3/6 257/3/6 266/3/6
f 259/3/6 260/3/6 267/3/6
f 258/3/6 259/3/6 267/3/6
f 267/3/6 260/3/6 268/3/6
f 265/3/6 266/3/6 269/3/6
f 266/3/6 267/3/6 269/3/6
f 269/3/6 267/3/6 270/3/6
f 240/2/6 242/2/6 271/2/6
f 243/2/6 241/2/6 272/2/6
f 240/2/6 271/2/6 273/2/6
f 271/2/6 272/2/6 273/2/6
f 272/2/6 241/2/6 274/2/6
f 273/2/6 272/2/6 274/2/6
