# MagicaVoxel @ Ephtracy

# group
o 

# material
mtllib a.mtl
usemtl palette

# normals
vn -1 0 0
vn 1 0 0
vn 0 0 1
vn 0 0 -1
vn 0 -1 0
vn 0 1 0

# texcoords
vt 0.220703 0.5
vt 0.224609 0.5
vt 0.283203 0.5
vt 0.947266 0.5
vt 0.955078 0.5

# verts
v -2 3.7 2
v -2 3.7 -2
v -2 4 2
v -2 4 -2
v -1.3 3.8 1.3
v -1.3 3.8 1.2
v -1.3 3.8 -1.3
v -1.3 3.9 1.3
v -1.3 3.9 1.2
v -1.3 3.9 -1.3
v -1 3.9 0.0999999
v -1 3.9 -0.1
v -1 4 0.0999999
v -1 4 -0.1
v -0.9 3.9 0.3
v -0.9 3.9 0.0999999
v -0.9 3.9 -0.1
v -0.9 3.9 -0.3
v -0.9 4 0.3
v -0.9 4 0.0999999
v -0.9 4 -0.1
v -0.9 4 -0.3
v -0.7 3.9 0.4
v -0.7 3.9 0.3
v -0.7 3.9 -0.3
v -0.7 3.9 -0.4
v -0.7 4 0.4
v -0.7 4 0.3
v -0.7 4 -0.3
v -0.7 4 -0.4
v -0.5 3.9 0.5
v -0.5 3.9 0.4
v -0.5 3.9 -0.4
v -0.5 3.9 -0.5
v -0.5 4 0.5
v -0.5 4 0.4
v -0.5 4 -0.4
v -0.5 4 -0.5
v -0.3 3.9 0.6
v -0.3 3.9 0.5
v -0.3 3.9 -0.5
v -0.3 3.9 -0.6
v -0.3 4 0.6
v -0.3 4 0.5
v -0.3 4 -0.5
v -0.3 4 -0.6
v -0.0999999 3.9 0.7
v -0.0999999 3.9 0.6
v -0.0999999 3.9 -0.6
v -0.0999999 3.9 -0.7
v -0.0999999 4 0.7
v -0.0999999 4 0.6
v -0.0999999 4 -0.6
v -0.0999999 4 -0.7
v 2.38419e-07 3.9 0.5
v 2.38419e-07 3.9 -0.5
v 2.38419e-07 4 0.5
v 2.38419e-07 4 -0.5
v 0.2 3.9 0.8
v 0.2 3.9 0.7
v 0.2 3.9 -0.7
v 0.2 3.9 -0.8
v 0.2 4 0.8
v 0.2 4 0.7
v 0.2 4 -0.7
v 0.2 4 -0.8
v 0.4 3.9 0.9
v 0.4 3.9 0.8
v 0.4 3.9 -0.8
v 0.4 3.9 -0.9
v 0.4 4 0.9
v 0.4 4 0.8
v 0.4 4 -0.8
v 0.4 4 -0.9
v 0.6 3.9 1
v 0.6 3.9 0.9
v 0.6 3.9 -0.9
v 0.6 3.9 -1
v 0.6 4 1
v 0.6 4 0.9
v 0.6 4 -0.9
v 0.6 4 -1
v 1.6 3.8 1.6
v 1.6 3.8 -1.6
v 1.6 3.9 1.6
v 1.6 3.9 -1.6
v 1.8 3.9 1.8
v 1.8 3.9 -1.8
v 1.8 4 1.8
v 1.8 4 -1.8
v -1.8 3.9 1.8
v -1.8 3.9 -1.8
v -1.8 4 1.8
v -1.8 4 -1.8
v -1.6 3.8 1.6
v -1.6 3.8 -1.6
v -1.6 3.9 1.6
v -1.6 3.9 -1.6
v -0.8 3.9 0.0999999
v -0.8 3.9 -0.1
v -0.8 4 0.0999999
v -0.8 4 -0.1
v -0.7 3.9 0.2
v -0.7 3.9 0.0999999
v -0.7 3.9 -0.1
v -0.7 3.9 -0.2
v -0.7 4 0.2
v -0.7 4 0.0999999
v -0.7 4 -0.1
v -0.7 4 -0.2
v -0.5 3.9 0.3
v -0.5 3.9 0.2
v -0.5 3.9 -0.2
v -0.5 3.9 -0.3
v -0.5 4 0.3
v -0.5 4 0.2
v -0.5 4 -0.2
v -0.5 4 -0.3
v -0.3 3.9 0.4
v -0.3 3.9 0.3
v -0.3 3.9 -0.3
v -0.3 3.9 -0.4
v -0.3 4 0.4
v -0.3 4 0.3
v -0.3 4 -0.3
v -0.3 4 -0.4
v -0.0999999 3.9 0.5
v -0.0999999 3.9 0.4
v -0.0999999 3.9 -0.4
v -0.0999999 3.9 -0.5
v -0.0999999 4 0.5
v -0.0999999 4 0.4
v -0.0999999 4 -0.4
v -0.0999999 4 -0.5
v 0.2 3.9 0.6
v 0.2 3.9 -0.6
v 0.2 4 0.6
v 0.2 4 -0.6
v 0.4 3.9 0.7
v 0.4 3.9 0.6
v 0.4 3.9 -0.6
v 0.4 3.9 -0.7
v 0.4 4 0.7
v 0.4 4 0.6
v 0.4 4 -0.6
v 0.4 4 -0.7
v 0.6 3.9 0.8
v 0.6 3.9 0.7
v 0.6 3.9 -0.7
v 0.6 3.9 -0.8
v 0.6 4 0.8
v 0.6 4 0.7
v 0.6 4 -0.7
v 0.6 4 -0.8
v 1 3.9 1
v 1 3.9 0.8
v 1 3.9 -0.8
v 1 3.9 -1
v 1 4 1
v 1 4 0.8
v 1 4 -0.8
v 1 4 -1
v 1.3 3.8 1.3
v 1.3 3.8 -1.3
v 1.3 3.9 1.3
v 1.3 3.9 -1.3
v 2 3.7 2
v 2 3.7 -2
v 2 4 2
v 2 4 -2
v -2 3.7 2
v -2 4 2
v 2 3.7 2
v 2 4 2
v -1.3 3.8 1.3
v -1.3 3.9 1.3
v 1.3 3.8 1.3
v 1.3 3.9 1.3
v 0.6 3.9 1
v 0.6 4 1
v 1 3.9 1
v 1 4 1
v 0.4 3.9 0.9
v 0.4 4 0.9
v 0.6 3.9 0.9
v 0.6 4 0.9
v 0.2 3.9 0.8
v 0.2 4 0.8
v 0.4 3.9 0.8
v 0.4 4 0.8
v -0.0999999 3.9 0.7
v -0.0999999 4 0.7
v 0.2 3.9 0.7
v 0.2 4 0.7
v -0.3 3.9 0.6
v -0.3 4 0.6
v -0.0999999 3.9 0.6
v -0.0999999 4 0.6
v -0.5 3.9 0.5
v -0.5 4 0.5
v -0.3 3.9 0.5
v -0.3 4 0.5
v -0.7 3.9 0.4
v -0.7 4 0.4
v -0.5 3.9 0.4
v -0.5 4 0.4
v -0.9 3.9 0.3
v -0.9 4 0.3
v -0.7 3.9 0.3
v -0.7 4 0.3
v -1 3.9 0.0999999
v -1 4 0.0999999
v -0.9 3.9 0.0999999
v -0.9 4 0.0999999
v -0.8 3.9 -0.1
v -0.8 4 -0.1
v -0.7 3.9 -0.1
v -0.7 4 -0.1
v -0.7 3.9 -0.2
v -0.7 4 -0.2
v -0.5 3.9 -0.2
v -0.5 4 -0.2
v -0.5 3.9 -0.3
v -0.5 4 -0.3
v -0.3 3.9 -0.3
v -0.3 4 -0.3
v -0.3 3.9 -0.4
v -0.3 4 -0.4
v -0.0999999 3.9 -0.4
v -0.0999999 4 -0.4
v -0.0999999 3.9 -0.5
v -0.0999999 4 -0.5
v 2.38419e-07 3.9 -0.5
v 2.38419e-07 4 -0.5
v 0.2 3.9 -0.6
v 0.2 4 -0.6
v 0.4 3.9 -0.6
v 0.4 4 -0.6
v 0.4 3.9 -0.7
v 0.4 4 -0.7
v 0.6 3.9 -0.7
v 0.6 4 -0.7
v 0.6 3.9 -0.8
v 0.6 4 -0.8
v 1 3.9 -0.8
v 1 4 -0.8
v -1.6 3.8 -1.6
v -1.6 3.9 -1.6
v 1.6 3.8 -1.6
v 1.6 3.9 -1.6
v -1.8 3.9 -1.8
v -1.8 4 -1.8
v 1.8 3.9 -1.8
v 1.8 4 -1.8
v -1.8 3.9 1.8
v -1.8 4 1.8
v 1.8 3.9 1.8
v 1.8 4 1.8
v -1.6 3.8 1.6
v -1.6 3.9 1.6
v 1.6 3.8 1.6
v 1.6 3.9 1.6
v 0.6 3.9 0.8
v 0.6 4 0.8
v 1 3.9 0.8
v 1 4 0.8
v 0.4 3.9 0.7
v 0.4 4 0.7
v 0.6 3.9 0.7
v 0.6 4 0.7
v 0.2 3.9 0.6
v 0.2 4 0.6
v 0.4 3.9 0.6
v 0.4 4 0.6
v -0.0999999 3.9 0.5
v -0.0999999 4 0.5
v 2.38419e-07 3.9 0.5
v 2.38419e-07 4 0.5
v -0.3 3.9 0.4
v -0.3 4 0.4
v -0.0999999 3.9 0.4
v -0.0999999 4 0.4
v -0.5 3.9 0.3
v -0.5 4 0.3
v -0.3 3.9 0.3
v -0.3 4 0.3
v -0.7 3.9 0.2
v -0.7 4 0.2
v -0.5 3.9 0.2
v -0.5 4 0.2
v -0.8 3.9 0.0999999
v -0.8 4 0.0999999
v -0.7 3.9 0.0999999
v -0.7 4 0.0999999
v -1 3.9 -0.1
v -1 4 -0.1
v -0.9 3.9 -0.1
v -0.9 4 -0.1
v -0.9 3.9 -0.3
v -0.9 4 -0.3
v -0.7 3.9 -0.3
v -0.7 4 -0.3
v -0.7 3.9 -0.4
v -0.7 4 -0.4
v -0.5 3.9 -0.4
v -0.5 4 -0.4
v -0.5 3.9 -0.5
v -0.5 4 -0.5
v -0.3 3.9 -0.5
v -0.3 4 -0.5
v -0.3 3.9 -0.6
v -0.3 4 -0.6
v -0.0999999 3.9 -0.6
v -0.0999999 4 -0.6
v -0.0999999 3.9 -0.7
v -0.0999999 4 -0.7
v 0.2 3.9 -0.7
v 0.2 4 -0.7
v 0.2 3.9 -0.8
v 0.2 4 -0.8
v 0.4 3.9 -0.8
v 0.4 4 -0.8
v 0.4 3.9 -0.9
v 0.4 4 -0.9
v 0.6 3.9 -0.9
v 0.6 4 -0.9
v 0.6 3.9 -1
v 0.6 4 -1
v 1 3.9 -1
v 1 4 -1
v -1.3 3.8 -1.3
v -1.3 3.9 -1.3
v 1.2 3.8 -1.3
v 1.2 3.9 -1.3
v 1.3 3.8 -1.3
v 1.3 3.9 -1.3
v -2 3.7 -2
v -2 4 -2
v 2 3.7 -2
v 2 4 -2
v -2 3.7 2
v 2 3.7 2
v -2 3.7 -2
v 2 3.7 -2
v -1.6 3.8 1.6
v 1.6 3.8 1.6
v -1.3 3.8 1.3
v 1.3 3.8 1.3
v -1.3 3.8 1.2
v -1.3 3.8 -1.3
v 1.2 3.8 -1.3
v 1.3 3.8 -1.3
v -1.6 3.8 -1.6
v 1.6 3.8 -1.6
v -1.8 3.9 1.8
v 1.8 3.9 1.8
v -1.6 3.9 1.6
v 1.6 3.9 1.6
v -1.3 3.9 1.3
v 1.3 3.9 1.3
v -1.3 3.9 1.2
v -1.2 3.9 1.2
v 1.2 3.9 1.2
v 0.6 3.9 1
v 1 3.9 1
v 0.4 3.9 0.9
v 0.6 3.9 0.9
v 0.2 3.9 0.8
v 0.4 3.9 0.8
v 0.6 3.9 0.8
v 1 3.9 0.8
v -0.0999999 3.9 0.7
v 0.2 3.9 0.7
v 0.4 3.9 0.7
v 0.6 3.9 0.7
v -0.3 3.9 0.6
v -0.0999999 3.9 0.6
v 0.2 3.9 0.6
v 0.4 3.9 0.6
v -0.5 3.9 0.5
v -0.3 3.9 0.5
v -0.0999999 3.9 0.5
v 2.38419e-07 3.9 0.5
v -0.7 3.9 0.4
v -0.5 3.9 0.4
v -0.3 3.9 0.4
v -0.0999999 3.9 0.4
v -0.9 3.9 0.3
v -0.7 3.9 0.3
v -0.5 3.9 0.3
v -0.3 3.9 0.3
v -0.7 3.9 0.2
v -0.5 3.9 0.2
v -1 3.9 0.0999999
v -0.9 3.9 0.0999999
v -0.8 3.9 0.0999999
v -0.7 3.9 0.0999999
v -1 3.9 -0.1
v -0.9 3.9 -0.1
v -0.8 3.9 -0.1
v -0.7 3.9 -0.1
v -0.7 3.9 -0.2
v -0.5 3.9 -0.2
v -0.9 3.9 -0.3
v -0.7 3.9 -0.3
v -0.5 3.9 -0.3
v -0.3 3.9 -0.3
v -0.7 3.9 -0.4
v -0.5 3.9 -0.4
v -0.3 3.9 -0.4
v -0.0999999 3.9 -0.4
v -0.5 3.9 -0.5
v -0.3 3.9 -0.5
v -0.0999999 3.9 -0.5
v 2.38419e-07 3.9 -0.5
v -0.3 3.9 -0.6
v -0.0999999 3.9 -0.6
v 0.2 3.9 -0.6
v 0.4 3.9 -0.6
v -0.0999999 3.9 -0.7
v 0.2 3.9 -0.7
v 0.4 3.9 -0.7
v 0.6 3.9 -0.7
v 0.2 3.9 -0.8
v 0.4 3.9 -0.8
v 0.6 3.9 -0.8
v 1 3.9 -0.8
v 0.4 3.9 -0.9
v 0.6 3.9 -0.9
v 0.6 3.9 -1
v 1 3.9 -1
v -1.2 3.9 -1.2
v 1.2 3.9 -1.2
v -1.3 3.9 -1.3
v 1.2 3.9 -1.3
v 1.3 3.9 -1.3
v -1.6 3.9 -1.6
v 1.6 3.9 -1.6
v -1.8 3.9 -1.8
v 1.8 3.9 -1.8
v -2 4 2
v 2 4 2
v -1.8 4 1.8
v 1.8 4 1.8
v 0.6 4 1
v 1 4 1
v 0.4 4 0.9
v 0.6 4 0.9
v 0.2 4 0.8
v 0.4 4 0.8
v 0.6 4 0.8
v 1 4 0.8
v -0.0999999 4 0.7
v 0.2 4 0.7
v 0.4 4 0.7
v 0.6 4 0.7
v -0.3 4 0.6
v -0.0999999 4 0.6
v 0.2 4 0.6
v 0.4 4 0.6
v -0.5 4 0.5
v -0.3 4 0.5
v -0.0999999 4 0.5
v 2.38419e-07 4 0.5
v -0.7 4 0.4
v -0.5 4 0.4
v -0.3 4 0.4
v -0.0999999 4 0.4
v -0.9 4 0.3
v -0.7 4 0.3
v -0.5 4 0.3
v -0.3 4 0.3
v -0.7 4 0.2
v -0.5 4 0.2
v -1 4 0.0999999
v -0.9 4 0.0999999
v -0.8 4 0.0999999
v -0.7 4 0.0999999
v -1 4 -0.1
v -0.9 4 -0.1
v -0.8 4 -0.1
v -0.7 4 -0.1
v -0.7 4 -0.2
v -0.5 4 -0.2
v -0.9 4 -0.3
v -0.7 4 -0.3
v -0.5 4 -0.3
v -0.3 4 -0.3
v -0.7 4 -0.4
v -0.5 4 -0.4
v -0.3 4 -0.4
v -0.0999999 4 -0.4
v -0.5 4 -0.5
v -0.3 4 -0.5
v -0.0999999 4 -0.5
v 2.38419e-07 4 -0.5
v -0.3 4 -0.6
v -0.0999999 4 -0.6
v 0.2 4 -0.6
v 0.4 4 -0.6
v -0.0999999 4 -0.7
v 0.2 4 -0.7
v 0.4 4 -0.7
v 0.6 4 -0.7
v 0.2 4 -0.8
v 0.4 4 -0.8
v 0.6 4 -0.8
v 1 4 -0.8
v 0.4 4 -0.9
v 0.6 4 -0.9
v 0.6 4 -1
v 1 4 -1
v -1.8 4 -1.8
v 1.8 4 -1.8
v -2 4 -2
v 2 4 -2

# faces
f 3/2/1 2/2/1 1/2/1
f 4/2/1 2/2/1 3/2/1
f 8/5/1 6/5/1 5/5/1
f 9/1/1 7/1/1 6/1/1
f 9/5/1 6/5/1 8/5/1
f 10/1/1 7/1/1 9/1/1
f 13/3/1 12/3/1 11/3/1
f 14/3/1 12/3/1 13/3/1
f 19/3/1 16/3/1 15/3/1
f 20/3/1 16/3/1 19/3/1
f 21/3/1 18/3/1 17/3/1
f 22/3/1 18/3/1 21/3/1
f 27/3/1 24/3/1 23/3/1
f 28/3/1 24/3/1 27/3/1
f 29/3/1 26/3/1 25/3/1
f 30/3/1 26/3/1 29/3/1
f 35/3/1 32/3/1 31/3/1
f 36/3/1 32/3/1 35/3/1
f 37/3/1 34/3/1 33/3/1
f 38/3/1 34/3/1 37/3/1
f 43/3/1 40/3/1 39/3/1
f 44/3/1 40/3/1 43/3/1
f 45/3/1 42/3/1 41/3/1
f 46/3/1 42/3/1 45/3/1
f 51/3/1 48/3/1 47/3/1
f 52/3/1 48/3/1 51/3/1
f 53/3/1 50/3/1 49/3/1
f 54/3/1 50/3/1 53/3/1
f 57/3/1 56/3/1 55/3/1
f 58/3/1 56/3/1 57/3/1
f 63/3/1 60/3/1 59/3/1
f 64/3/1 60/3/1 63/3/1
f 65/3/1 62/3/1 61/3/1
f 66/3/1 62/3/1 65/3/1
f 71/3/1 68/3/1 67/3/1
f 72/3/1 68/3/1 71/3/1
f 73/3/1 70/3/1 69/3/1
f 74/3/1 70/3/1 73/3/1
f 79/3/1 76/3/1 75/3/1
f 80/3/1 76/3/1 79/3/1
f 81/3/1 78/3/1 77/3/1
f 82/3/1 78/3/1 81/3/1
f 85/2/1 84/2/1 83/2/1
f 86/2/1 84/2/1 85/2/1
f 89/2/1 88/2/1 87/2/1
f 90/2/1 88/2/1 89/2/1
f 91/2/2 92/2/2 93/2/2
f 93/2/2 92/2/2 94/2/2
f 95/2/2 96/2/2 97/2/2
f 97/2/2 96/2/2 98/2/2
f 99/3/2 100/3/2 101/3/2
f 101/3/2 100/3/2 102/3/2
f 103/3/2 104/3/2 107/3/2
f 107/3/2 104/3/2 108/3/2
f 105/3/2 106/3/2 109/3/2
f 109/3/2 106/3/2 110/3/2
f 111/3/2 112/3/2 115/3/2
f 115/3/2 112/3/2 116/3/2
f 113/3/2 114/3/2 117/3/2
f 117/3/2 114/3/2 118/3/2
f 119/3/2 120/3/2 123/3/2
f 123/3/2 120/3/2 124/3/2
f 121/3/2 122/3/2 125/3/2
f 125/3/2 122/3/2 126/3/2
f 127/3/2 128/3/2 131/3/2
f 131/3/2 128/3/2 132/3/2
f 129/3/2 130/3/2 133/3/2
f 133/3/2 130/3/2 134/3/2
f 135/3/2 136/3/2 137/3/2
f 137/3/2 136/3/2 138/3/2
f 139/3/2 140/3/2 143/3/2
f 143/3/2 140/3/2 144/3/2
f 141/3/2 142/3/2 145/3/2
f 145/3/2 142/3/2 146/3/2
f 147/3/2 148/3/2 151/3/2
f 151/3/2 148/3/2 152/3/2
f 149/3/2 150/3/2 153/3/2
f 153/3/2 150/3/2 154/3/2
f 155/3/2 156/3/2 159/3/2
f 159/3/2 156/3/2 160/3/2
f 157/3/2 158/3/2 161/3/2
f 161/3/2 158/3/2 162/3/2
f 163/5/2 164/5/2 165/5/2
f 165/5/2 164/5/2 166/5/2
f 167/2/2 168/2/2 169/2/2
f 169/2/2 168/2/2 170/2/2
f 173/2/3 172/2/3 171/2/3
f 174/2/3 172/2/3 173/2/3
f 177/5/3 176/5/3 175/5/3
f 178/5/3 176/5/3 177/5/3
f 181/3/3 180/3/3 179/3/3
f 182/3/3 180/3/3 181/3/3
f 185/3/3 184/3/3 183/3/3
f 186/3/3 184/3/3 185/3/3
f 189/3/3 188/3/3 187/3/3
f 190/3/3 188/3/3 189/3/3
f 193/3/3 192/3/3 191/3/3
f 194/3/3 192/3/3 193/3/3
f 197/3/3 196/3/3 195/3/3
f 198/3/3 196/3/3 197/3/3
f 201/3/3 200/3/3 199/3/3
f 202/3/3 200/3/3 201/3/3
f 205/3/3 204/3/3 203/3/3
f 206/3/3 204/3/3 205/3/3
f 209/3/3 208/3/3 207/3/3
f 210/3/3 208/3/3 209/3/3
f 213/3/3 212/3/3 211/3/3
f 214/3/3 212/3/3 213/3/3
f 217/3/3 216/3/3 215/3/3
f 218/3/3 216/3/3 217/3/3
f 221/3/3 220/3/3 219/3/3
f 222/3/3 220/3/3 221/3/3
f 225/3/3 224/3/3 223/3/3
f 226/3/3 224/3/3 225/3/3
f 229/3/3 228/3/3 227/3/3
f 230/3/3 228/3/3 229/3/3
f 233/3/3 232/3/3 231/3/3
f 234/3/3 232/3/3 233/3/3
f 237/3/3 236/3/3 235/3/3
f 238/3/3 236/3/3 237/3/3
f 241/3/3 240/3/3 239/3/3
f 242/3/3 240/3/3 241/3/3
f 245/3/3 244/3/3 243/3/3
f 246/3/3 244/3/3 245/3/3
f 249/2/3 248/2/3 247/2/3
f 250/2/3 248/2/3 249/2/3
f 253/2/3 252/2/3 251/2/3
f 254/2/3 252/2/3 253/2/3
f 255/2/4 256/2/4 257/2/4
f 257/2/4 256/2/4 258/2/4
f 259/2/4 260/2/4 261/2/4
f 261/2/4 260/2/4 262/2/4
f 263/3/4 264/3/4 265/3/4
f 265/3/4 264/3/4 266/3/4
f 267/3/4 268/3/4 269/3/4
f 269/3/4 268/3/4 270/3/4
f 271/3/4 272/3/4 273/3/4
f 273/3/4 272/3/4 274/3/4
f 275/3/4 276/3/4 277/3/4
f 277/3/4 276/3/4 278/3/4
f 279/3/4 280/3/4 281/3/4
f 281/3/4 280/3/4 282/3/4
f 283/3/4 284/3/4 285/3/4
f 285/3/4 284/3/4 286/3/4
f 287/3/4 288/3/4 289/3/4
f 289/3/4 288/3/4 290/3/4
f 291/3/4 292/3/4 293/3/4
f 293/3/4 292/3/4 294/3/4
f 295/3/4 296/3/4 297/3/4
f 297/3/4 296/3/4 298/3/4
f 299/3/4 300/3/4 301/3/4
f 301/3/4 300/3/4 302/3/4
f 303/3/4 304/3/4 305/3/4
f 305/3/4 304/3/4 306/3/4
f 307/3/4 308/3/4 309/3/4
f 309/3/4 308/3/4 310/3/4
f 311/3/4 312/3/4 313/3/4
f 313/3/4 312/3/4 314/3/4
f 315/3/4 316/3/4 317/3/4
f 317/3/4 316/3/4 318/3/4
f 319/3/4 320/3/4 321/3/4
f 321/3/4 320/3/4 322/3/4
f 323/3/4 324/3/4 325/3/4
f 325/3/4 324/3/4 326/3/4
f 327/3/4 328/3/4 329/3/4
f 329/3/4 328/3/4 330/3/4
f 331/1/4 332/1/4 333/1/4
f 333/1/4 332/1/4 334/1/4
f 333/5/4 334/5/4 335/5/4
f 335/5/4 334/5/4 336/5/4
f 337/2/4 338/2/4 339/2/4
f 339/2/4 338/2/4 340/2/4
f 343/2/5 342/2/5 341/2/5
f 344/2/5 342/2/5 343/2/5
f 345/2/6 346/2/6 347/2/6
f 347/2/6 346/2/6 348/2/6
f 345/2/6 347/2/6 349/2/6
f 345/2/6 349/2/6 350/2/6
f 348/2/6 346/2/6 352/2/6
f 350/2/6 351/2/6 353/2/6
f 351/2/6 352/2/6 353/2/6
f 345/2/6 350/2/6 353/2/6
f 352/2/6 346/2/6 354/2/6
f 353/2/6 352/2/6 354/2/6
f 355/2/6 356/2/6 357/2/6
f 357/2/6 356/2/6 358/2/6
f 359/5/6 360/5/6 361/5/6
f 361/5/6 360/5/6 362/5/6
f 362/5/6 360/5/6 363/5/6
f 362/4/6 363/4/6 364/4/6
f 364/4/6 363/4/6 365/4/6
f 362/4/6 364/4/6 366/4/6
f 366/4/6 364/4/6 367/4/6
f 362/4/6 366/4/6 368/4/6
f 368/4/6 366/4/6 369/4/6
f 365/4/6 363/4/6 371/4/6
f 362/4/6 368/4/6 372/4/6
f 372/4/6 368/4/6 373/4/6
f 370/4/6 371/4/6 375/4/6
f 362/4/6 372/4/6 376/4/6
f 376/4/6 372/4/6 377/4/6
f 374/4/6 375/4/6 379/4/6
f 362/4/6 376/4/6 380/4/6
f 380/4/6 376/4/6 381/4/6
f 362/4/6 380/4/6 384/4/6
f 384/4/6 380/4/6 385/4/6
f 382/4/6 383/4/6 387/4/6
f 362/4/6 384/4/6 388/4/6
f 388/4/6 384/4/6 389/4/6
f 386/4/6 387/4/6 391/4/6
f 390/4/6 391/4/6 393/4/6
f 362/4/6 388/4/6 394/4/6
f 394/4/6 388/4/6 395/4/6
f 392/4/6 393/4/6 397/4/6
f 362/4/6 394/4/6 398/4/6
f 396/4/6 397/4/6 400/4/6
f 397/4/6 393/4/6 401/4/6
f 400/4/6 397/4/6 401/4/6
f 401/4/6 393/4/6 402/4/6
f 393/4/6 391/4/6 403/4/6
f 402/4/6 393/4/6 403/4/6
f 398/4/6 399/4/6 404/4/6
f 403/4/6 391/4/6 406/4/6
f 391/4/6 387/4/6 407/4/6
f 406/4/6 391/4/6 407/4/6
f 404/4/6 405/4/6 408/4/6
f 407/4/6 387/4/6 410/4/6
f 387/4/6 383/4/6 411/4/6
f 410/4/6 387/4/6 411/4/6
f 408/4/6 409/4/6 412/4/6
f 411/4/6 383/4/6 414/4/6
f 414/4/6 383/4/6 415/4/6
f 412/4/6 413/4/6 416/4/6
f 378/4/6 379/4/6 418/4/6
f 379/4/6 375/4/6 419/4/6
f 418/4/6 379/4/6 419/4/6
f 416/4/6 417/4/6 420/4/6
f 419/4/6 375/4/6 422/4/6
f 375/4/6 371/4/6 423/4/6
f 422/4/6 375/4/6 423/4/6
f 420/4/6 421/4/6 424/4/6
f 423/4/6 371/4/6 426/4/6
f 371/4/6 363/4/6 427/4/6
f 426/4/6 371/4/6 427/4/6
f 424/4/6 425/4/6 428/4/6
f 428/4/6 429/4/6 430/4/6
f 427/4/6 363/4/6 431/4/6
f 361/1/6 362/1/6 432/1/6
f 430/4/6 431/4/6 432/4/6
f 428/4/6 430/4/6 432/4/6
f 412/4/6 416/4/6 432/4/6
f 424/4/6 428/4/6 432/4/6
f 420/4/6 424/4/6 432/4/6
f 416/4/6 420/4/6 432/4/6
f 362/4/6 398/4/6 432/4/6
f 408/4/6 412/4/6 432/4/6
f 404/4/6 408/4/6 432/4/6
f 398/4/6 404/4/6 432/4/6
f 431/4/6 363/4/6 433/4/6
f 432/4/6 431/4/6 433/4/6
f 363/5/6 360/5/6 433/5/6
f 361/1/6 432/1/6 434/1/6
f 432/1/6 433/1/6 434/1/6
f 433/5/6 360/5/6 435/5/6
f 434/1/6 433/1/6 435/1/6
f 435/5/6 360/5/6 436/5/6
f 355/2/6 357/2/6 437/2/6
f 358/2/6 356/2/6 438/2/6
f 355/2/6 437/2/6 439/2/6
f 437/2/6 438/2/6 439/2/6
f 438/2/6 356/2/6 440/2/6
f 439/2/6 438/2/6 440/2/6
f 441/2/6 442/2/6 443/2/6
f 443/2/6 442/2/6 444/2/6
f 445/3/6 446/3/6 448/3/6
f 447/3/6 448/3/6 450/3/6
f 448/3/6 446/3/6 451/3/6
f 450/3/6 448/3/6 451/3/6
f 451/3/6 446/3/6 452/3/6
f 449/3/6 450/3/6 454/3/6
f 450/3/6 451/3/6 454/3/6
f 454/3/6 451/3/6 455/3/6
f 455/3/6 451/3/6 456/3/6
f 453/3/6 454/3/6 458/3/6
f 454/3/6 455/3/6 458/3/6
f 458/3/6 455/3/6 459/3/6
f 459/3/6 455/3/6 460/3/6
f 457/3/6 458/3/6 462/3/6
f 458/3/6 459/3/6 462/3/6
f 462/3/6 459/3/6 463/3/6
f 463/3/6 459/3/6 464/3/6
f 461/3/6 462/3/6 466/3/6
f 462/3/6 463/3/6 466/3/6
f 466/3/6 463/3/6 467/3/6
f 467/3/6 463/3/6 468/3/6
f 465/3/6 466/3/6 470/3/6
f 466/3/6 467/3/6 470/3/6
f 470/3/6 467/3/6 471/3/6
f 471/3/6 467/3/6 472/3/6
f 469/3/6 470/3/6 473/3/6
f 470/3/6 471/3/6 473/3/6
f 473/3/6 471/3/6 474/3/6
f 469/3/6 473/3/6 476/3/6
f 476/3/6 473/3/6 477/3/6
f 477/3/6 473/3/6 478/3/6
f 475/3/6 476/3/6 479/3/6
f 476/3/6 477/3/6 479/3/6
f 479/3/6 477/3/6 480/3/6
f 480/3/6 477/3/6 481/3/6
f 481/3/6 482/3/6 483/3/6
f 480/3/6 481/3/6 483/3/6
f 480/3/6 483/3/6 485/3/6
f 483/3/6 484/3/6 485/3/6
f 485/3/6 484/3/6 486/3/6
f 486/3/6 484/3/6 487/3/6
f 486/3/6 487/3/6 489/3/6
f 487/3/6 488/3/6 489/3/6
f 489/3/6 488/3/6 490/3/6
f 490/3/6 488/3/6 491/3/6
f 490/3/6 491/3/6 493/3/6
f 491/3/6 492/3/6 493/3/6
f 493/3/6 492/3/6 494/3/6
f 494/3/6 492/3/6 495/3/6
f 464/3/6 459/3/6 496/3/6
f 494/3/6 495/3/6 497/3/6
f 495/3/6 496/3/6 497/3/6
f 497/3/6 496/3/6 498/3/6
f 496/3/6 459/3/6 499/3/6
f 498/3/6 496/3/6 499/3/6
f 499/3/6 500/3/6 501/3/6
f 498/3/6 499/3/6 501/3/6
f 501/3/6 500/3/6 502/3/6
f 502/3/6 500/3/6 503/3/6
f 502/3/6 503/3/6 505/3/6
f 503/3/6 504/3/6 505/3/6
f 505/3/6 504/3/6 506/3/6
f 506/3/6 504/3/6 507/3/6
f 506/3/6 507/3/6 509/3/6
f 507/3/6 508/3/6 509/3/6
f 509/3/6 508/3/6 510/3/6
f 510/3/6 508/3/6 511/3/6
f 511/3/6 508/3/6 512/3/6
f 441/2/6 443/2/6 513/2/6
f 444/2/6 442/2/6 514/2/6
f 441/2/6 513/2/6 515/2/6
f 513/2/6 514/2/6 515/2/6
f 514/2/6 442/2/6 516/2/6
f 515/2/6 514/2/6 516/2/6
